<svg xmlns="http://www.w3.org/2000/svg" fill="none" viewBox="0 0 100 100"><path fill="#ff4712" d="M71.465 45.806a5.34 5.34 0 0 0 .41-4.868 5.336 5.336 0 0 0-3.73-3.153c-.013 0-.055-.014-.069-.014-1.895-.41-2.86-.93-3.854-1.993-1.062-1-1.583-1.959-1.993-3.854 0-.014-.014-.056-.014-.07-.382-1.618-1.5-3.048-3.153-3.729a5.319 5.319 0 0 0-4.868.41l-.062.035c-1.632 1.055-2.68 1.36-4.132 1.319-1.458.042-2.507-.264-4.132-1.32-.014-.006-.049-.027-.063-.034a5.34 5.34 0 0 0-4.867-.41 5.336 5.336 0 0 0-3.153 3.73c0 .013-.014.055-.014.069-.41 1.895-.93 2.86-1.993 3.854-1 1.062-1.959 1.583-3.854 1.993-.014 0-.056.014-.07.014-1.618.382-3.049 1.5-3.729 3.153a5.32 5.32 0 0 0 .41 4.868l.034.062c1.056 1.632 1.361 2.68 1.32 4.132.041 1.458-.264 2.507-1.32 4.132-.006.014-.027.049-.034.063a5.34 5.34 0 0 0-.41 4.867 5.336 5.336 0 0 0 3.73 3.153c.013 0 .055.014.069.014 1.895.41 2.86.93 3.854 1.993 1.062 1 1.583 1.959 1.993 3.854 0 .014.014.056.014.07.382 1.618 1.5 3.049 3.153 3.729a5.319 5.319 0 0 0 4.867-.41l.063-.034c1.632-1.056 2.68-1.361 4.132-1.32 1.458-.041 2.507.264 4.132 1.32l.062.034a5.34 5.34 0 0 0 4.868.41 5.336 5.336 0 0 0 3.153-3.73c0-.013.014-.055.014-.069.41-1.895.93-2.86 1.993-3.854 1-1.062 1.959-1.583 3.854-1.993.014 0 .056-.014.07-.014 1.618-.382 3.048-1.5 3.729-3.153a5.319 5.319 0 0 0-.41-4.867l-.035-.063c-1.055-1.632-1.36-2.68-1.319-4.132-.042-1.458.264-2.507 1.32-4.132l.034-.062Zm-6.61 6.298-.07.035a5.285 5.285 0 0 0-2.778 2.833 5.313 5.313 0 0 0-.042 3.972c0 .014.021.063.028.07.528 1.451.201 2.368-.23 2.75-.381.43-1.298.757-2.75.23a.208.208 0 0 1-.069-.029 5.314 5.314 0 0 0-6.805 2.82c0 .007-.028.055-.035.07-.653 1.395-1.528 1.819-2.104 1.784-.576.035-1.451-.382-2.104-1.785 0-.007-.028-.055-.035-.07a5.285 5.285 0 0 0-2.833-2.777 5.314 5.314 0 0 0-3.972-.042.21.21 0 0 0-.07.028c-1.451.528-2.368.201-2.75-.23-.43-.381-.757-1.298-.23-2.75 0-.013.022-.062.029-.069a5.313 5.313 0 0 0-.042-3.972 5.333 5.333 0 0 0-2.778-2.833c-.007 0-.055-.028-.07-.035-1.395-.653-1.819-1.528-1.784-2.104-.035-.576.382-1.451 1.785-2.104.007 0 .055-.028.07-.035a5.285 5.285 0 0 0 2.777-2.833c.549-1.32.52-2.736.042-3.972a.206.206 0 0 0-.028-.07c-.528-1.451-.201-2.368.23-2.75.381-.43 1.298-.757 2.75-.229.013 0 .062.02.069.028a5.314 5.314 0 0 0 6.805-2.82c0-.007.028-.055.035-.07.653-1.395 1.528-1.819 2.104-1.784.576-.035 1.451.382 2.104 1.785 0 .007.028.055.035.07a5.285 5.285 0 0 0 2.833 2.777c1.32.549 2.736.52 3.972.042a.21.21 0 0 0 .07-.028c1.451-.528 2.368-.201 2.75.23.43.381.757 1.298.229 2.75 0 .013-.02.062-.028.069a5.313 5.313 0 0 0 .042 3.972 5.333 5.333 0 0 0 2.778 2.833c.007 0 .055.028.07.035 1.395.653 1.819 1.528 1.784 2.104.035.576-.382 1.451-1.785 2.104Z"/><path fill="#ff4712" d="M95.694 41.694s-.034-.027-.048-.034c-3.577-2.466-5.271-4.535-6.521-7.861-1.472-3.236-1.736-5.896-.951-10.174 0-.014.006-.042.006-.056.528-3.145-.41-6.493-2.833-8.916-2.423-2.424-5.77-3.361-8.916-2.834-.014 0-.042 0-.056.007-4.278.785-6.93.521-10.174-.951-3.326-1.25-5.395-2.944-7.86-6.52-.008-.015-.029-.036-.035-.05C56.458 1.709 53.424 0 50 0c-3.424 0-6.458 1.701-8.306 4.306-.007.013-.027.034-.034.048-2.466 3.577-4.535 5.271-7.861 6.521-3.236 1.472-5.896 1.736-10.174.951-.014 0-.042-.007-.056-.007-3.145-.527-6.493.41-8.916 2.834-2.424 2.423-3.361 5.77-2.834 8.916 0 .014 0 .042.007.056.785 4.278.521 6.93-.951 10.174-1.25 3.326-2.944 5.395-6.52 7.86-.015.008-.036.029-.05.035C1.709 43.542 0 46.576 0 50c0 3.424 1.701 6.458 4.306 8.306.013.007.034.027.048.034 3.577 2.465 5.271 4.535 6.521 7.861 1.472 3.237 1.736 5.896.951 10.174 0 .014-.007.042-.007.055-.527 3.146.41 6.494 2.834 8.917 2.423 2.424 5.77 3.361 8.916 2.834.014 0 .042 0 .056-.007 4.278-.785 6.93-.521 10.174.951 3.326 1.25 5.395 2.944 7.86 6.52.008.015.029.036.035.05C43.542 98.291 46.576 100 50 100c3.424 0 6.458-1.708 8.306-4.306.007-.013.027-.034.034-.048 2.466-3.577 4.535-5.271 7.861-6.521 3.237-1.472 5.896-1.736 10.174-.951.014 0 .042.006.055.006 3.146.528 6.494-.41 8.917-2.833 2.424-2.423 3.361-5.77 2.834-8.916 0-.014 0-.042-.007-.056-.785-4.278-.521-6.93.951-10.174 1.25-3.326 2.944-5.395 6.52-7.86.015-.008.036-.029.05-.035C98.291 56.458 100 53.424 100 50c0-3.424-1.701-6.458-4.306-8.306ZM78.007 67.958h-.07a10.149 10.149 0 0 0-9.986 9.986v.07c-.173 3.861-2.034 5.854-3.687 6.437-1.583.757-4.306.667-7.16-1.944a.26.26 0 0 0-.048-.042 10.155 10.155 0 0 0-7.063-2.854c-2.743 0-5.23 1.09-7.062 2.854a.257.257 0 0 1-.05.042c-2.853 2.604-5.575 2.701-7.159 1.944-1.653-.583-3.514-2.576-3.687-6.437v-.07a10.149 10.149 0 0 0-9.986-9.986h-.07c-3.86-.173-5.854-2.034-6.437-3.687-.757-1.584-.667-4.306 1.944-7.16a.261.261 0 0 0 .042-.048A10.154 10.154 0 0 0 20.382 50c0-2.743-1.09-5.23-2.854-7.063a.261.261 0 0 1-.042-.048c-2.604-2.854-2.701-5.577-1.944-7.16.583-1.653 2.576-3.514 6.437-3.687h.07a10.149 10.149 0 0 0 9.986-9.986v-.07c.173-3.861 2.034-5.854 3.687-6.437 1.584-.757 4.306-.667 7.16 1.944.014.014.035.035.049.042a10.155 10.155 0 0 0 7.062 2.854c2.743 0 5.23-1.09 7.063-2.854a.254.254 0 0 1 .048-.042c2.854-2.604 5.577-2.701 7.16-1.944 1.653.583 3.514 2.576 3.687 6.437v.07a10.15 10.15 0 0 0 9.986 9.986h.07c3.861.173 5.854 2.034 6.437 3.687.757 1.584.667 4.306-1.944 7.16a.261.261 0 0 0-.042.048A10.154 10.154 0 0 0 79.604 50c0 2.743 1.09 5.23 2.854 7.063.014.013.035.034.042.048 2.604 2.854 2.701 5.577 1.944 7.16-.583 1.653-2.576 3.514-6.437 3.687Z"/></svg>