<?xml version="1.0" encoding="UTF-8"?><svg id="Layer_2" xmlns="http://www.w3.org/2000/svg" viewBox="0 0 773.8 106.87"><defs><style>.cls-1{stroke-width:0px;}</style></defs><g id="Layer_1-2"><path class="cls-1" d="m728.99,84.99c16.76-11.14,28.18-20.86,34.26-29.17,6.08-8.36,9.11-16.89,9.11-25.6s-2.76-15.6-8.28-21.42c-5.47-5.87-13.47-8.81-24-8.81-19.49,0-30.94,11.32-34.33,33.95l20.74,4.18c.61-6.28,1.8-11.11,3.57-14.51,1.82-3.39,4.68-5.09,8.58-5.09,6.48,0,9.72,4.3,9.72,12.91,0,6.03-2.35,12.41-7.06,19.14-4.71,6.68-16.56,18.15-35.55,34.41v20.28h66.38l1.67-20.28h-44.81Z"/><path class="cls-1" d="m685.2,55.83c6.08-8.36,9.11-16.89,9.11-25.6s-2.76-15.6-8.28-21.42c-5.47-5.87-13.47-8.81-24-8.81-19.49,0-30.94,11.32-34.33,33.95l20.74,4.18c.61-6.28,1.8-11.11,3.57-14.51,1.82-3.39,4.68-5.09,8.58-5.09,6.48,0,9.72,4.3,9.72,12.91,0,6.03-2.35,12.41-7.06,19.14-4.71,6.68-16.56,18.15-35.55,34.41v20.28h66.38l1.67-20.28h-44.81c16.76-11.14,28.18-20.86,34.26-29.17Z"/><polygon class="cls-1" points="564.88 43.44 539.97 43.44 539.97 1.59 517.18 1.59 517.18 105.27 539.97 105.27 539.97 62.89 564.88 62.89 564.88 105.27 587.67 105.27 587.67 1.59 564.88 1.59 564.88 43.44"/><path class="cls-1" d="m465.65,18.53c8.41,0,13.32,6.79,14.74,20.36l20.51-3.34c-2.58-23.7-14.48-35.55-35.7-35.55-13.32,0-23.39,4.99-30.23,14.96-6.79,9.92-10.18,23.42-10.18,40.48,0,15.7,3.44,28.2,10.33,37.52,6.94,9.27,16.3,13.9,28.1,13.9,11.14,0,19.5-4.48,25.07-13.44l2.96,11.85h9.65v-55.29h-36v17.85h15.49c-.05,13.67-4.71,20.51-13.98,20.51-5.77,0-10.15-2.53-13.14-7.6-2.99-5.06-4.48-13.8-4.48-26.2,0-13.98,1.52-23.47,4.56-28.48,3.09-5.01,7.19-7.52,12.3-7.52Z"/><path class="cls-1" d="m391.4,60.84c0,8.41-.25,14.15-.76,17.24-.51,3.09-1.87,5.57-4.1,7.44-2.23,1.87-5.24,2.81-9.04,2.81-3.49,0-6.46-.84-8.89-2.51-2.38-1.72-3.95-4.23-4.71-7.52-.76-3.29-1.14-9.11-1.14-17.47V1.59h-22.79v59.24c0,13.77,1.09,23.39,3.27,28.86,2.18,5.42,5.85,9.65,11.01,12.68,5.16,2.99,12.25,4.48,21.27,4.48,9.62,0,17.17-2.05,22.63-6.15,5.52-4.1,8.94-9.01,10.25-14.74,1.37-5.72,2.05-14.41,2.05-26.05V1.59h-19.06v59.24Z"/><path class="cls-1" d="m287.91,0c-25.06,0-37.6,17.8-37.6,53.4,0,17.47,3.16,30.76,9.49,39.88,6.33,9.06,15.72,13.6,28.18,13.6,25.07,0,37.6-17.82,37.6-53.47,0-17.77-3.22-31.12-9.65-40.03-6.43-8.91-15.77-13.37-28.03-13.37Zm10.33,81.42c-2.18,4.61-5.62,6.91-10.33,6.91s-8.23-2.41-10.41-7.22c-2.13-4.81-3.19-14.05-3.19-27.72s1.09-23.22,3.27-27.88c2.18-4.66,5.62-6.99,10.33-6.99s8.23,2.33,10.41,6.99c2.18,4.61,3.27,13.9,3.27,27.88s-1.11,23.42-3.34,28.03Z"/><path class="cls-1" d="m239.79,32.58c0-5.52-.99-10.48-2.96-14.89-1.92-4.46-4.61-7.95-8.05-10.48-3.44-2.58-6.86-4.15-10.25-4.71-3.34-.61-8.18-.91-14.51-.91h-32.58v103.68h22.79v-41.02h11.39l13.82,41.02h24.84l-19.06-45.34c9.72-5.27,14.58-14.38,14.58-27.34Zm-35.55,14.89h-10.03v-29.09h9.11c3.39,0,5.95.41,7.67,1.22,1.77.76,3.32,2.25,4.63,4.48,1.32,2.18,1.97,4.99,1.97,8.43,0,9.98-4.46,14.96-13.37,14.96Z"/><path class="cls-1" d="m119.36,0c-25.06,0-37.6,17.8-37.6,53.4,0,17.47,3.16,30.76,9.49,39.88,6.33,9.06,15.72,13.6,28.18,13.6,25.07,0,37.6-17.82,37.6-53.47,0-17.77-3.22-31.12-9.65-40.03-6.43-8.91-15.77-13.37-28.03-13.37Zm10.33,81.42c-2.18,4.61-5.62,6.91-10.33,6.91s-8.23-2.41-10.41-7.22c-2.13-4.81-3.19-14.05-3.19-27.72s1.09-23.22,3.27-27.88c2.18-4.66,5.62-6.99,10.33-6.99s8.23,2.33,10.41,6.99c2.18,4.61,3.27,13.9,3.27,27.88s-1.11,23.42-3.34,28.03Z"/><path class="cls-1" d="m54.31,51.19c9.87-3.29,14.81-10.73,14.81-22.33,0-6.63-1.44-12.18-4.33-16.63-2.84-4.46-6.38-7.34-10.63-8.66-4.2-1.32-10.46-1.97-18.76-1.97H0v103.68h35.39c8.61,0,15.24-.76,19.9-2.28,4.71-1.57,8.66-4.66,11.85-9.27,3.19-4.66,4.79-10.36,4.79-17.09,0-12.81-5.87-21.29-17.62-25.44ZM21.87,18.38h9.04c6.23,0,10.28,1.24,12.15,3.72,1.92,2.43,2.89,5.22,2.89,8.35,0,3.39-.96,6.41-2.89,9.04-1.87,2.63-6.48,3.95-13.82,3.95h-7.37v-25.06Zm11.17,69.04h-11.17v-27.19h11.17c5.27,0,9.19,1.04,11.77,3.11,2.63,2.03,3.95,5.54,3.95,10.56,0,9.01-5.24,13.52-15.72,13.52Z"/></g></svg>